# xmcd
#
# Track frame offsets: 
#        150
#        9795
#        21310
#        35666
#        47134
#        66919
#        78615
#        93806
#        107694
#        119521
#        132828
#        148957
#        161293
#        174528
#        189641
#        205063
#        217221
#        230946
#        241591
#        258958
#        270943
#        281391
#        292386
#        304817
#
# Disc length: 4212 seconds
#
# Revision: 0
# Processed by: cddbd v1.5.2PL0 Copyright (c) Steve Scherf et al.
# Submitted via: ExactAudioCopy v1.0b4
#
DISCID=63107218
DTITLE=The Wagoneers - The Essential Wagoneers
DYEAR=2011
DGENRE=Country
TTITLE0=Confess
TTITLE1=Help Me Get Over You
TTITLE2=So Many Mistakes
TTITLE3=Please Don't Think I'm Guilty
TTITLE4=Stout And High
TTITLE5=I Wanna Know Her Again
TTITLE6=I'll Take Some Time
TTITLE7=Lie And Say You Love Me
TTITLE8=Every Step Of The Way
TTITLE9=Hell Town
TTITLE10=All Nite
TTITLE11=Sit A Little Closer
TTITLE12=Everbody Calls My Baby Honey
TTITLE13=Por Favor Senor
TTITLE14=Take Me
TTITLE15=Champagne And Chandeliers
TTITLE16=Good Fortune
TTITLE17=She Wouldn't Have It
TTITLE18=Atlanta
TTITLE19=Test Of Time
TTITLE20=I Can't Stay
TTITLE21=The Biggest Mansion
TTITLE22=The Voice Of One
TTITLE23=Rows And Rows
EXTD=
EXTT0=
EXTT1=
EXTT2=
EXTT3=
EXTT4=
EXTT5=
EXTT6=
EXTT7=
EXTT8=
EXTT9=
EXTT10=
EXTT11=
EXTT12=
EXTT13=
EXTT14=
EXTT15=
EXTT16=
EXTT17=
EXTT18=
EXTT19=
EXTT20=
EXTT21=
EXTT22=
EXTT23=
PLAYORDER=
